<?xml version="1.0" encoding="UTF-8" standalone="no"?>
<svg width="168px" height="41px" viewBox="0 0 168 41" version="1.1" xmlns="http://www.w3.org/2000/svg" xmlns:xlink="http://www.w3.org/1999/xlink">
    <!-- Generator: Sketch 41.2 (35397) - http://www.bohemiancoding.com/sketch -->
    <title>entrance</title>
    <desc>Created with Sketch.</desc>
    <defs>
        <polygon id="path-1" points="0 28 27.9990667 28 27.9990667 0 0 0"></polygon>
    </defs>
    <g id="Symbols" stroke="none" stroke-width="1" fill="none" fill-rule="evenodd">
        <g id="entrance">
            <g id="level_1">
                <g id="圖層_1" fill="#F0648F">
                    <path d="M27.44,0.346266667 C27.3177333,0.1316 27.0890667,0 26.8426667,0 L19.5318667,0 C19.2845333,0 19.0568,0.1316 18.9326667,0.346266667 L14.0532,8.79386667 C14.0429333,8.81253333 14.0364,8.83026667 14.0289333,8.84893333 L14,8.84893333 L13.9710667,8.84893333 C13.9617333,8.83026667 13.9561333,8.81253333 13.9458667,8.79386667 L9.0664,0.346266667 C8.9432,0.1316 8.71546667,0 8.46813333,0 L1.15733333,0 C0.910933333,0 0.682266667,0.1316 0.56,0.346266667 C0.435866667,0.56 0.435866667,0.822266667 0.56,1.03693333 L6.89826667,12.0073333 C5.36106667,13.706 4.42306667,15.9572 4.42306667,18.424 C4.42213333,23.7029333 8.7192,28 14,28 C19.2808,28 23.5769333,23.7029333 23.5769333,18.424 C23.5769333,15.9572 22.6389333,13.706 21.1026667,12.0073333 L27.44,1.03693333 C27.5641333,0.822266667 27.5641333,0.56 27.44,0.346266667 L27.44,0.346266667 Z M19.9304,1.38133333 L21.9884,1.38133333 L17.3338667,9.44626667 C16.7617333,9.23253333 16.1634667,9.0748 15.5456,8.974 L19.9304,1.38133333 L19.9304,1.38133333 Z M12.4553333,8.974 C11.8374667,9.07386667 11.2392,9.23253333 10.6670667,9.44626667 L6.01066667,1.38133333 L8.06866667,1.38133333 L12.4553333,8.974 L12.4553333,8.974 Z M4.4156,1.38133333 L9.40426667,10.024 C8.87973333,10.3124 8.38413333,10.6474667 7.92586667,11.0264 L2.35386667,1.38133333 L4.4156,1.38133333 L4.4156,1.38133333 Z M14,26.6186667 C9.4808,26.6186667 5.80533333,22.9422667 5.80533333,18.4249333 C5.80533333,13.9057333 9.4808,10.2293333 14,10.2293333 C18.5192,10.2293333 22.1946667,13.9057333 22.1946667,18.4249333 C22.1946667,22.9413333 18.5192,26.6186667 14,26.6186667 L14,26.6186667 Z M20.0741333,11.0264 C19.6149333,10.6474667 19.1202667,10.3114667 18.5948,10.024 L23.5844,1.38133333 L25.6461333,1.38133333 L20.0741333,11.0264 L20.0741333,11.0264 Z" id="Shape"></path>
                </g>
                <rect id="Rectangle" x="0" y="0" width="28" height="28"></rect>
            </g>
            <g id="level_2" transform="translate(28.000000, 0.000000)">
                <g id="圖層_1" fill="#F0648F">
                    <g id="Group">
                        <path d="M14.0009333,11.6834667 C10.2834667,11.6834667 7.25853333,14.7074667 7.25853333,18.4249333 C7.25853333,22.1424 10.2825333,25.1664 14.0009333,25.1664 C17.7174667,25.1664 20.7424,22.1424 20.7424,18.4249333 C20.7424,14.7074667 17.7174667,11.6834667 14.0009333,11.6834667 L14.0009333,11.6834667 Z M14.0009333,23.7832 C11.0450667,23.7832 8.64173333,21.3789333 8.64173333,18.424 C8.64173333,15.4690667 11.0450667,13.0648 14.0009333,13.0648 C16.9558667,13.0648 19.3601333,15.4690667 19.3601333,18.424 C19.3601333,21.3789333 16.9558667,23.7832 14.0009333,23.7832 L14.0009333,23.7832 Z" id="Shape"></path>
                        <path d="M27.44,0.346266667 C27.3177333,0.1316 27.0881333,0 26.8426667,0 L19.5318667,0 C19.2845333,0 19.0568,0.1316 18.9326667,0.346266667 L14.0532,8.79386667 C14.0429333,8.81253333 14.0364,8.83026667 14.0289333,8.84893333 L14.0009333,8.84893333 L13.9710667,8.84893333 C13.9626667,8.83026667 13.9561333,8.81253333 13.9468,8.79386667 L9.0664,0.346266667 C8.9432,0.1316 8.71546667,0 8.46813333,0 L1.15733333,0 C0.910933333,0 0.682266667,0.1316 0.56,0.346266667 C0.435866667,0.56 0.435866667,0.822266667 0.56,1.03693333 L6.89733333,12.0073333 C5.36106667,13.706 4.42306667,15.9572 4.42306667,18.424 C4.42213333,23.7029333 8.7192,28 14.0009333,28 C19.2817333,28 23.5778667,23.7029333 23.5778667,18.424 C23.5778667,15.9572 22.6398667,13.706 21.1026667,12.0073333 L27.44,1.03693333 C27.5641333,0.822266667 27.5641333,0.56 27.44,0.346266667 L27.44,0.346266667 Z M19.9304,1.38133333 L21.9893333,1.38133333 L17.3338667,9.44626667 C16.7617333,9.23253333 16.1634667,9.0748 15.5456,8.974 L19.9304,1.38133333 L19.9304,1.38133333 Z M12.4553333,8.974 C11.8374667,9.07386667 11.2392,9.2344 10.6670667,9.44813333 L6.01066667,1.38133333 L8.06866667,1.38133333 L12.4553333,8.974 L12.4553333,8.974 Z M4.4156,1.38133333 L9.4052,10.024 C8.88066667,10.3124 8.38506667,10.6474667 7.92586667,11.0264 L2.35386667,1.38133333 L4.4156,1.38133333 L4.4156,1.38133333 Z M14.0009333,26.6186667 C9.4808,26.6186667 5.8044,22.9422667 5.8044,18.4249333 C5.8044,13.9057333 9.4808,10.2312 14.0009333,10.2312 C18.5201333,10.2312 22.1956,13.9066667 22.1956,18.4249333 C22.1956,22.9413333 18.5201333,26.6186667 14.0009333,26.6186667 L14.0009333,26.6186667 Z M20.0741333,11.0264 C19.6149333,10.6474667 19.1202667,10.3114667 18.5957333,10.024 L23.5844,1.38133333 L25.6461333,1.38133333 L20.0741333,11.0264 L20.0741333,11.0264 Z" id="Shape"></path>
                    </g>
                </g>
                <rect id="Rectangle" x="0" y="0" width="28" height="28"></rect>
            </g>
            <g id="level_3" transform="translate(56.000000, 0.000000)">
                <g id="圖層_1" fill="#F0648F">
                    <g id="Group">
                        <path d="M27.44,0.346266667 C27.3177333,0.1316 27.0890667,0 26.8426667,0 L19.5318667,0 C19.2845333,0 19.0568,0.1316 18.9336,0.346266667 L14.0532,8.79386667 C14.0429333,8.81253333 14.0364,8.83026667 14.0289333,8.84893333 L14,8.84893333 L13.9710667,8.84893333 C13.9626667,8.83026667 13.9561333,8.81253333 13.9468,8.79386667 L9.0664,0.346266667 C8.9432,0.1316 8.71546667,0 8.46813333,0 L1.15733333,0 C0.910933333,0 0.682266667,0.1316 0.56,0.346266667 C0.435866667,0.56 0.435866667,0.822266667 0.56,1.03693333 L6.89826667,12.0073333 C5.362,13.706 4.42493333,15.9572 4.42493333,18.424 C4.424,23.7029333 8.72013333,28 14,28 C19.2798667,28 23.576,23.7029333 23.576,18.424 C23.576,15.9572 22.6389333,13.706 21.1026667,12.0073333 L27.44,1.03693333 C27.5641333,0.822266667 27.5641333,0.56 27.44,0.346266667 L27.44,0.346266667 Z M19.9304,1.38133333 L21.9893333,1.38133333 L17.3338667,9.44813333 C16.7617333,9.23346667 16.1634667,9.0748 15.5456,8.974 L19.9304,1.38133333 L19.9304,1.38133333 Z M12.4553333,8.974 C11.8374667,9.07386667 11.2392,9.23253333 10.6670667,9.44626667 L6.01066667,1.38133333 L8.06866667,1.38133333 L12.4553333,8.974 L12.4553333,8.974 Z M4.4156,1.38133333 L9.4052,10.024 C8.88066667,10.3142667 8.38506667,10.6493333 7.92586667,11.0264 L2.35386667,1.38133333 L4.4156,1.38133333 L4.4156,1.38133333 Z M14,26.6186667 C9.48173333,26.6186667 5.80626667,22.9432 5.80626667,18.4249333 C5.80626667,13.9066667 9.48173333,10.2312 14,10.2312 C18.5182667,10.2312 22.1937333,13.9066667 22.1937333,18.4249333 C22.1937333,22.9432 18.5182667,26.6186667 14,26.6186667 L14,26.6186667 Z M20.0741333,11.0264 C19.6149333,10.6493333 19.1202667,10.3133333 18.5948,10.0258667 L23.5844,1.38133333 L25.6461333,1.38133333 L20.0741333,11.0264 L20.0741333,11.0264 Z" id="Shape"></path>
                        <path d="M13.9990667,11.6834667 C10.2825333,11.6834667 7.25853333,14.7074667 7.25853333,18.4249333 C7.25853333,22.1424 10.2816,25.1645333 13.9990667,25.1645333 C17.7165333,25.1645333 20.7424,22.1424 20.7424,18.4249333 C20.7424,14.7074667 17.7165333,11.6834667 13.9990667,11.6834667 L13.9990667,11.6834667 Z M13.9990667,23.7832 C11.0441333,23.7832 8.63986667,21.3789333 8.63986667,18.424 C8.63986667,15.4690667 11.0441333,13.0648 13.9990667,13.0648 C16.9549333,13.0648 19.3601333,15.4690667 19.3601333,18.424 C19.3601333,21.3789333 16.9549333,23.7832 13.9990667,23.7832 L13.9990667,23.7832 Z" id="Shape"></path>
                        <path d="M17.3618667,17.1901333 L15.3813333,16.9017333 L14.4974667,15.1097333 C14.4041333,14.9202667 14.2118667,14.8017333 14.0018667,14.8017333 C13.7918667,14.8017333 13.5996,14.9202667 13.5072,15.1097333 L12.6214667,16.9017333 L10.64,17.1901333 C10.4318667,17.2190667 10.2592,17.3656 10.1938667,17.5653333 C10.1285333,17.7641333 10.1826667,17.9844 10.3329333,18.1318667 L11.7665333,19.53 L11.4277333,21.5002667 C11.3922667,21.7084 11.4781333,21.9174667 11.6470667,22.0416 C11.7441333,22.1106667 11.858,22.1452 11.9728,22.1452 C12.0614667,22.1452 12.1482667,22.1256 12.2294667,22.0836 L14.0009333,21.1521333 L15.7705333,22.0836 C15.9581333,22.1816 16.1830667,22.1657333 16.3529333,22.0416 C16.5237333,21.9174667 16.6077333,21.7084 16.5722667,21.5002667 L16.2334667,19.53 L17.668,18.1318667 C17.8182667,17.9844 17.8724,17.7632 17.8070667,17.5653333 C17.7436,17.3646667 17.57,17.2190667 17.3618667,17.1901333 L17.3618667,17.1901333 Z M15.2544,18.942 C15.1237333,19.0698667 15.0649333,19.2518667 15.0957333,19.4301333 L15.2936,20.5837333 L14.2585333,20.0386667 C14.098,19.9528 13.9057333,19.9528 13.7442667,20.0386667 L12.7073333,20.5837333 L12.9061333,19.4301333 C12.9369333,19.2518667 12.8781333,19.0689333 12.7465333,18.942 L11.9065333,18.1216 L13.0666667,17.9536 C13.2468,17.9284 13.4017333,17.8154667 13.4829333,17.6512 L14.0018667,16.6030667 L14.5198667,17.6512 C14.6001333,17.8154667 14.756,17.9284 14.9352,17.9536 L16.0953333,18.1216 L15.2544,18.942 L15.2544,18.942 Z" id="Shape"></path>
                    </g>
                </g>
                <rect id="Rectangle" x="0" y="0" width="28" height="28"></rect>
            </g>
            <g id="Page-1-Copy-4" transform="translate(84.000000, 0.000000)">
                <g id="Group-3" fill="#F0648F">
                    <path d="M21.4224138,9.13462667 L19.5010345,8.80049333 L23.9366207,1.37489333 L26.0578621,1.37489333 L21.4224138,9.13462667 Z M23.5813103,14.7588933 L22.7471034,17.0100933 C22.6911034,17.16036 22.6911034,17.3236933 22.7471034,17.4748933 L23.5822759,19.7242267 L21.6937241,21.2670267 C21.5672414,21.3696933 21.4822759,21.5124933 21.4523448,21.6702267 L21.0149655,24.02316 L18.5828276,24.4478267 C18.4196552,24.4758267 18.2728966,24.55796 18.1666897,24.6792933 L16.5677931,26.50396 L14.239931,25.6966267 C14.0835172,25.6424933 13.9145517,25.6434267 13.7591034,25.6966267 L11.4312414,26.5048933 L9.8362069,24.67836 C9.72903448,24.5560933 9.58131034,24.4748933 9.41813793,24.44596 L6.98503448,24.02316 L6.54572414,21.67116 C6.5157931,21.5134267 6.4317931,21.37156 6.30531034,21.2688933 L4.41868966,19.7232933 L5.25289655,17.4730267 C5.30889655,17.3218267 5.30889655,17.1584933 5.25289655,17.00916 L4.41772414,14.75796 L6.30627586,13.2160933 C6.43275862,13.1134267 6.51772414,12.9696933 6.54765517,12.81196 L6.98503448,10.45996 L9.41717241,10.0352933 C9.57937931,10.0072933 9.72710345,9.92516 9.83331034,9.80289333 L11.4322069,7.97916 L13.760069,8.78556 C13.9164828,8.83969333 14.0854483,8.83969333 14.2408966,8.78556 L16.5687586,7.97822667 L18.1647586,9.80382667 C18.27,9.92702667 18.4186897,10.00916 18.5818621,10.03716 L21.0149655,10.45996 L21.4542759,12.81196 C21.4832414,12.96876 21.5691724,13.11156 21.6946897,13.2142267 L23.5813103,14.7588933 Z M1.94213793,1.37489333 L4.06337931,1.37489333 L8.498,8.79956 L6.57758621,9.13462667 L1.94213793,1.37489333 Z M7.82406897,1.37489333 L10.9166207,6.55302667 C10.8229655,6.59409333 10.736069,6.64822667 10.6665517,6.72756 L9.61703448,7.92409333 L5.70475862,1.37489333 L7.82406897,1.37489333 Z M20.175931,1.37489333 L22.2942759,1.37489333 L18.3829655,7.92409333 L17.3353793,6.72662667 C17.2658621,6.64729333 17.178,6.59222667 17.0843448,6.55116 L20.175931,1.37489333 Z M27.2888966,9.33333333e-05 L19.7655862,9.33333333e-05 C19.5116552,9.33333333e-05 19.2770345,0.131693333 19.1495862,0.34356 L15.1726207,7.00196 L14.0004828,7.40889333 L12.8264138,7.00196 L8.85041379,0.34356 C8.72393103,0.131693333 8.48834483,9.33333333e-05 8.23537931,9.33333333e-05 L0.711103448,9.33333333e-05 C0.457172414,9.33333333e-05 0.222551724,0.131693333 0.0951034483,0.34356 C-0.0313793103,0.557293333 -0.0313793103,0.818626667 0.0951034483,1.03049333 L5.58503448,10.2210267 L5.19303448,12.3256933 L3.12296552,14.0168933 C2.89606897,14.2026267 2.81206897,14.5040933 2.91248276,14.7738267 L3.8277931,17.24156 L2.91344828,19.7074267 C2.814,19.97716 2.89703448,20.2776933 3.12296552,20.46436 L5.19110345,22.1574267 L5.67289655,24.73716 C5.726,25.0190267 5.95482759,25.2402267 6.24737931,25.29156 L8.91510345,25.7554267 L10.6636552,27.7564933 C10.8026897,27.9142267 11.0025517,28.0000933 11.2082069,28.0000933 C11.2883448,28.0000933 11.3694483,27.9870267 11.4476552,27.95996 L13.9995172,27.0742267 L16.5513793,27.9590267 C16.8304138,28.05516 17.1422759,27.97396 17.3344138,27.75556 L19.0858621,25.75636 L21.7545517,25.2906267 C22.0461379,25.2392933 22.2749655,25.0180933 22.3271034,24.7362267 L22.8069655,22.1564933 L24.8770345,20.4662267 C25.103931,20.2804933 25.187931,19.9780933 25.0884828,19.70836 L24.1722069,17.2424933 L25.0865517,14.7756933 C25.186,14.5050267 25.1029655,14.2044933 24.8770345,14.01876 L22.8088966,12.3256933 L22.4149655,10.2200933 L27.9048966,1.03049333 C28.0323448,0.818626667 28.0323448,0.557293333 27.9048966,0.34356 C27.7774483,0.131693333 27.5428276,9.33333333e-05 27.2888966,9.33333333e-05 L27.2888966,9.33333333e-05 Z" id="Fill-1"></path>
                </g>
                <rect id="Rectangle" x="0" y="0" width="28" height="28"></rect>
                <path d="M13.9990345,23.0663067 C10.6766897,23.0663067 7.9742069,20.4529733 7.9742069,17.2423067 C7.9742069,14.02884 10.6766897,11.41644 13.9990345,11.41644 C17.3223448,11.41644 20.0267586,14.02884 20.0267586,17.2423067 C20.0267586,20.4529733 17.3223448,23.0663067 13.9990345,23.0663067 M13.9990345,10.04164 C9.89268966,10.04164 6.552,13.2719067 6.552,17.2423067 C6.552,21.2117733 9.89268966,24.4411067 13.9990345,24.4411067 C18.1063448,24.4411067 21.4489655,21.2117733 21.4489655,17.2423067 C21.4489655,13.2719067 18.1063448,10.04164 13.9990345,10.04164" id="Fill-4" fill="#F0648F"></path>
                <path d="M15.7019172,17.5765333 C15.5609517,17.7090667 15.4972276,17.9004 15.5310207,18.0870667 L15.8284,19.7549333 L14.2787448,18.9672 C14.1049517,18.8785333 13.8973655,18.8785333 13.7235724,18.9672 L12.1719862,19.7558667 L12.4684,18.0870667 C12.5021931,17.9004 12.4375034,17.71 12.2975034,17.5765333 L11.0404,16.3921333 L12.7764,16.1494667 C12.9695034,16.1214667 13.1375034,16.0038667 13.2253655,15.8349333 L14.0006759,14.3164 L14.7750207,15.834 C14.8609517,16.0038667 15.0299172,16.1214667 15.2239862,16.1494667 L16.9599862,16.3921333 L15.7019172,17.5765333 Z M14.5355724,12.7596 C14.4351586,12.5636 14.2285379,12.4385333 14.0016414,12.4385333 C13.7747448,12.4385333 13.5671586,12.5626667 13.4677103,12.7596 L12.2946069,15.0518667 L9.6741931,15.4196 C9.44922759,15.4513333 9.26288276,15.6034667 9.1924,15.8116 C9.12288276,16.0206667 9.18081379,16.2493333 9.34302069,16.4024 L11.2402621,18.1906667 L10.7922621,20.7116 C10.7536414,20.9281333 10.846331,21.1465333 11.0288138,21.2753333 C11.1330897,21.3481333 11.2566759,21.3854667 11.3792966,21.3854667 C11.4748828,21.3854667 11.570469,21.364 11.6573655,21.3192 L14.0006759,20.1273333 L16.3430207,21.3192 C16.5448138,21.4209333 16.7881241,21.4050667 16.9706069,21.2753333 C17.1550207,21.1465333 17.2477103,20.9281333 17.2090897,20.7106667 L16.7591586,18.1906667 L18.6573655,16.4024 C18.8195724,16.2493333 18.8775034,16.0206667 18.8079862,15.8116 C18.738469,15.6034667 18.5501931,15.4513333 18.3261931,15.4196 L15.7057793,15.0528 L14.5355724,12.7596 Z" id="Fill-6" fill="#F0648F"></path>
            </g>
            <g id="level_5" transform="translate(112.000000, 0.000000)">
                <g id="圖層_1" fill="#F0648F">
                    <g id="Group">
                        <path d="M27.4428,14.9426667 L24.8173333,8.5148 C24.7109333,8.25533333 24.458,8.08453333 24.1770667,8.08453333 L3.822,8.08453333 C3.542,8.08453333 3.28906667,8.25533333 3.18266667,8.5148 L0.5572,14.9426667 C0.447066667,15.2105333 0.517066667,15.5204 0.732666667,15.7145333 L13.5361333,27.3541333 C13.6677333,27.4745333 13.8338667,27.5333333 14,27.5333333 C14.1661333,27.5333333 14.3322667,27.4745333 14.4648,27.3541333 L27.2673333,15.7145333 C27.4829333,15.5204 27.5529333,15.2105333 27.4428,14.9426667 L27.4428,14.9426667 Z M16.7570667,15.7546667 L14,24.0454667 L11.2429333,15.7546667 L16.7570667,15.7546667 L16.7570667,15.7546667 Z M9.78693333,15.7546667 L12.8006667,24.8192 L2.8308,15.7546667 L9.78693333,15.7546667 L9.78693333,15.7546667 Z M18.2130667,15.7546667 L25.1692,15.7546667 L15.1984,24.8192 L18.2130667,15.7546667 L18.2130667,15.7546667 Z M25.718,14.3733333 L15.0966667,14.3733333 L23.7598667,9.58066667 L25.718,14.3733333 L25.718,14.3733333 Z M14,13.4008 L6.8852,9.46586667 L21.1138667,9.46586667 L14,13.4008 L14,13.4008 Z M4.2392,9.58253333 L12.9024,14.3742667 L2.282,14.3742667 L4.2392,9.58253333 L4.2392,9.58253333 Z" id="Shape"></path>
                        <path d="M14,5.57293333 C14.3817333,5.57293333 14.6906667,5.264 14.6906667,4.8832 L14.6906667,1.15733333 C14.6906667,0.776533333 14.3808,0.466666667 14,0.466666667 C13.6192,0.466666667 13.3093333,0.776533333 13.3093333,1.15733333 L13.3093333,4.88226667 C13.3093333,5.264 13.6182667,5.57293333 14,5.57293333 L14,5.57293333 Z" id="Shape"></path>
                        <path d="M7.93706667,5.222 C8.07333333,5.3788 8.2656,5.46 8.45973333,5.46 C8.61933333,5.46 8.7808,5.404 8.91146667,5.29106667 C9.19986667,5.04093333 9.23066667,4.606 8.98146667,4.31666667 L5.95186667,0.818533333 C5.70173333,0.530133333 5.26586667,0.4984 4.97746667,0.748533333 C4.68906667,0.998666667 4.65826667,1.43453333 4.90746667,1.72386667 L7.93706667,5.222 L7.93706667,5.222 Z" id="Shape"></path>
                        <path d="M19.5402667,5.46 C19.7344,5.46 19.9266667,5.3788 20.0629333,5.222 L23.0934667,1.72386667 C23.3436,1.43546667 23.3118667,0.998666667 23.0234667,0.748533333 C22.7350667,0.4984 22.2982667,0.531066667 22.0490667,0.818533333 L19.0185333,4.31666667 C18.7693333,4.606 18.8001333,5.04 19.0885333,5.29106667 C19.2192,5.404 19.3806667,5.46 19.5402667,5.46 L19.5402667,5.46 Z" id="Shape"></path>
                    </g>
                </g>
                <rect id="Rectangle" x="0" y="0" width="28" height="28"></rect>
            </g>
            <g id="Page-1" transform="translate(140.000000, 0.000000)">
                <path d="M13.0634933,14.9661867 C13.2436267,14.9409867 13.3994933,14.8280533 13.4806933,14.6637867 L14.00056,13.61192 L14.51856,14.6637867 C14.59976,14.82712 14.7546933,14.9409867 14.93576,14.9661867 L16.09776,15.1360533 L15.2558933,15.9564533 C15.1252267,16.0833867 15.0664267,16.2672533 15.0962933,16.4464533 L15.2960267,17.6009867 L14.25816,17.0549867 C14.0966933,16.9700533 13.9044267,16.9700533 13.7438933,17.0549867 L12.7032267,17.60192 L12.9020267,16.4464533 C12.9328267,16.2672533 12.8740267,16.0833867 12.74336,15.9564533 L11.9014933,15.1360533 L13.0634933,14.9661867 Z M11.7614933,16.5453867 L11.42176,18.5212533 C11.3862933,18.7284533 11.4712267,18.9384533 11.64296,19.0625867 C11.8128267,19.1857867 12.0386933,19.2025867 12.2262933,19.1045867 L14.00056,18.1721867 L15.7738933,19.1045867 C15.8550933,19.1465867 15.94376,19.1680533 16.0324267,19.1680533 C16.1472267,19.1680533 16.2610933,19.1325867 16.3572267,19.0625867 C16.5280267,18.9384533 16.6138933,18.7284533 16.5784267,18.52032 L16.2368267,16.5453867 L17.67416,15.1444533 C17.82536,14.99792 17.8794933,14.7776533 17.81416,14.5769867 C17.74976,14.37632 17.57616,14.23072 17.3670933,14.2008533 L15.3828267,13.9124533 L14.4970933,12.1157867 C14.4046933,11.9272533 14.2114933,11.8068533 14.0014933,11.8068533 L14.00056,11.8068533 C13.7896267,11.8068533 13.59736,11.9272533 13.50496,12.1157867 L12.6164267,13.9124533 L10.63216,14.2008533 C10.4230933,14.23072 10.2494933,14.37632 10.1850933,14.5769867 C10.11976,14.7776533 10.17296,14.99792 10.32416,15.1444533 L11.7614933,16.5453867 Z" id="Fill-1" fill="#F0648F"></path>
                <g id="Group-5">
                    <mask id="mask-2" fill="white">
                        <use xlink:href="#path-1"></use>
                    </mask>
                    <g id="Clip-4"></g>
                    <path d="M23.1241733,26.62548 L4.87470667,26.62548 C4.09164,26.62548 3.45510667,25.9880133 3.45510667,25.20588 C3.45510667,24.4237467 4.09164,23.78628 4.87470667,23.78628 L23.1241733,23.78628 C23.90724,23.78628 24.5437733,24.4237467 24.5437733,25.20588 C24.5437733,25.9880133 23.90724,26.62548 23.1241733,26.62548 L23.1241733,26.62548 Z M3.42150667,20.8864133 C1.97670667,19.0449467 1.27764,17.0625467 1.39710667,15.1529467 C1.50910667,13.3824133 2.34444,11.79948 3.75190667,10.69628 C4.71604,9.93934667 5.81644,9.50068 6.97937333,9.39614667 C6.38670667,10.6916133 6.06657333,12.2344133 6.06657333,13.9760133 C6.06657333,16.87308 6.93177333,20.0025467 8.35417333,22.4124133 L4.87470667,22.4124133 C4.86630667,22.4124133 4.85977333,22.4133467 4.85137333,22.4133467 C4.32964,21.94108 3.84990667,21.4324133 3.42150667,20.8864133 L3.42150667,20.8864133 Z M8.65937333,9.20014667 C8.73777333,9.12361333 8.79937333,9.03121333 8.83390667,8.92388 C9.96510667,7.31108 11.74404,6.40388 14.00084,6.40388 C16.2567067,6.40388 18.0337733,7.31014667 19.1649733,8.92294667 C19.20044,9.03121333 19.26204,9.12548 19.34044,9.20201333 C20.11884,10.44428 20.5481733,12.0589467 20.5481733,13.9760133 C20.5481733,17.3537467 19.4785733,20.3684133 18.0235067,22.4124133 L9.97537333,22.4124133 C8.52124,20.3684133 7.45070667,17.3537467 7.45070667,13.9760133 C7.45070667,12.0580133 7.88004,10.4433467 8.65937333,9.20014667 L8.65937333,9.20014667 Z M13.9999067,1.65788 L15.4167067,3.07561333 L13.9999067,4.49148 L12.5831067,3.07561333 L13.9999067,1.65788 Z M24.2469733,10.69628 C25.65444,11.79948 26.4907067,13.3824133 26.6027067,15.1529467 C26.7221733,17.0625467 26.0221733,19.0449467 24.5783067,20.8864133 C24.15084,21.4324133 23.66924,21.94108 23.14844,22.4133467 C23.1409733,22.4133467 23.1325733,22.4124133 23.1241733,22.4124133 L19.64564,22.4124133 C21.0671067,20.0025467 21.93324,16.87308 21.93324,13.9760133 C21.93324,12.2344133 21.6121733,10.6916133 21.02044,9.39614667 C22.1833733,9.50068 23.2837733,9.93934667 24.2469733,10.69628 L24.2469733,10.69628 Z M24.6585733,22.87348 C25.01324,22.5113467 25.3567067,22.13708 25.66844,21.7404133 C27.3241733,19.62828 28.1249733,17.3192133 27.9831067,15.0661467 C27.8477733,12.8961467 26.8239067,10.9576133 25.1009733,9.60708 C23.6879067,8.49734667 21.96404,7.93921333 20.2065733,7.99988 C19.06044,6.42721333 17.3851067,5.41454667 15.3205733,5.11494667 L16.8745733,3.56094667 C17.14244,3.29308 17.14244,2.85721333 16.8745733,2.58934667 L14.48524,0.200946667 C14.2173733,-0.0678533333 13.78244,-0.0678533333 13.51364,0.200946667 L11.12524,2.58934667 C10.99644,2.71814667 10.92364,2.89268 10.92364,3.07561333 C10.92364,3.25761333 10.99644,3.43214667 11.12524,3.56094667 L12.67924,5.11494667 C10.6147067,5.41548 8.93937333,6.42721333 7.79230667,7.99988 C6.03484,7.94108 4.31190667,8.49828 2.89790667,9.60708 C1.17497333,10.9576133 0.15204,12.8961467 0.0157733333,15.0661467 C-0.12516,17.3192133 0.674706667,19.62828 2.33137333,21.7404133 C2.64310667,22.13708 2.98564,22.5113467 3.34217333,22.87348 C2.58337333,23.37468 2.08124,24.2324133 2.08124,25.20588 C2.08124,26.7468133 3.33470667,28.00028 4.87470667,28.00028 L23.1241733,28.00028 C24.6641733,28.00028 25.91764,26.7468133 25.91764,25.20588 C25.91764,24.2324133 25.4155067,23.37468 24.6585733,22.87348 L24.6585733,22.87348 Z" id="Fill-3" fill="#F0648F" mask="url(#mask-2)"></path>
                </g>
                <rect id="Rectangle" x="0" y="0" width="28" height="28"></rect>
            </g>
            <g id="mail" transform="translate(0.000000, 28.000000)" fill="#444444">
                <g id="圖層_1">
                    <path d="M18.299,0 L1.702,0 C0.763,0 0,0.764 0,1.703 L0,11.297 C0,12.236 0.763,13 1.702,13 L18.299,13 C19.236,13 20,12.236 20,11.297 L20,1.703 C20,0.764 19.236,0 18.299,0 L18.299,0 Z M18.299,1.436 L10.002,6.764 L1.702,1.436 L18.299,1.436 L18.299,1.436 Z M18.299,11.563 L1.702,11.563 C1.555,11.563 1.435,11.444 1.435,11.296 L1.435,3.146 L9.615,8.397 C9.733,8.472 9.867,8.511 10.002,8.511 C10.136,8.511 10.271,8.472 10.389,8.397 L18.564,3.147 L18.564,11.297 C18.564,11.444 18.445,11.563 18.299,11.563 L18.299,11.563 Z" id="Shape"></path>
                </g>
            </g>
            <g id="mail-copy" transform="translate(20.000000, 28.000000)" fill="#3D89C8">
                <g id="圖層_1">
                    <path d="M18.299,0 L1.702,0 C0.763,0 0,0.764 0,1.703 L0,11.297 C0,12.236 0.763,13 1.702,13 L18.299,13 C19.236,13 20,12.236 20,11.297 L20,1.703 C20,0.764 19.236,0 18.299,0 L18.299,0 Z M18.299,1.436 L10.002,6.764 L1.702,1.436 L18.299,1.436 L18.299,1.436 Z M18.299,11.563 L1.702,11.563 C1.555,11.563 1.435,11.444 1.435,11.296 L1.435,3.146 L9.615,8.397 C9.733,8.472 9.867,8.511 10.002,8.511 C10.136,8.511 10.271,8.472 10.389,8.397 L18.564,3.147 L18.564,11.297 C18.564,11.444 18.445,11.563 18.299,11.563 L18.299,11.563 Z" id="Shape"></path>
                </g>
            </g>
        </g>
    </g>
</svg>