<svg xmlns="http://www.w3.org/2000/svg" xmlns:xlink="http://www.w3.org/1999/xlink" width="128" height="44" viewBox="0 0 128 44">
  <defs>
    <polygon id="logo_header_128x44-a" points="0 0 33.207 0 33.207 40.904 0 40.904"/>
  </defs>
  <g fill="none" fill-rule="evenodd">
    <path fill="#B5B7B9" d="M42.2897,13.3472 C42.2897,14.9102 41.0237,16.1742 39.4617,16.1742 C37.9017,16.1742 36.6377,14.9102 36.6377,13.3472 C36.6377,11.7872 37.9017,10.5232 39.4617,10.5232 C41.0237,10.5232 42.2897,11.7872 42.2897,13.3472 M43.1257,39.2782 C39.5017,39.2782 37.3797,36.1852 37.3797,32.7362 L37.3797,20.3192 C37.3797,19.0802 38.4837,18.4632 39.5447,18.4632 C40.5607,18.4632 41.5347,19.0362 41.5347,20.1402 L41.5347,31.7632 C41.5347,34.0172 42.1087,35.9192 44.2737,35.9192 C44.9387,35.9192 45.4677,35.5672 45.9987,35.5672 C46.7057,35.5672 47.5887,35.7852 47.5887,36.8032 C47.5887,38.6152 44.5827,39.2782 43.1257,39.2782"/>
    <path fill="#B5B7B9" d="M66.0732,39.278 C62.4512,39.278 60.3292,36.185 60.3292,32.736 C60.3292,30.173 60.8142,28.624 60.8142,26.505 C60.8142,24.561 60.3292,22.261 58.0312,22.261 C54.7602,22.261 51.1822,27.963 51.1822,33.754 L51.1822,37.466 C51.1822,38.35 50.3432,39.057 49.1932,39.057 C48.3092,39.057 47.0712,38.615 47.0712,37.554 L47.0712,20.273 C47.0712,19.036 48.1312,18.417 49.1932,18.417 C50.2092,18.417 51.1822,18.99 51.1822,20.098 L51.1822,23.543 C53.2142,20.273 55.1602,18.329 59.1802,18.329 C63.7762,18.329 64.9232,21.599 64.9232,25.535 C64.9232,28.097 64.6162,29.598 64.6162,31.763 C64.6162,34.017 65.0562,35.92 67.2232,35.92 C67.8862,35.92 68.2372,35.568 68.9452,35.568 C70.0082,35.568 70.4932,35.785 70.4932,36.803 C70.4932,38.615 67.5312,39.278 66.0732,39.278"/>
    <path fill="#B5B7B9" d="M86.8052,39.0084 C84.1942,39.0084 82.6022,37.1524 81.4112,35.0754 C80.9222,34.2804 78.9342,30.3444 78.4502,29.5064 C76.5472,28.9304 76.2392,27.9594 76.2392,26.8964 C76.2392,25.8824 77.1222,25.7054 77.5662,25.7054 C78.4042,25.7054 79.9502,26.5874 81.2342,26.5874 C82.3832,26.5874 84.1942,25.2624 84.1942,23.7154 C84.1942,22.4354 83.0002,21.5074 81.5432,21.5074 C77.9182,21.5074 73.9422,28.1804 73.9422,32.2024 L73.9422,37.6814 C73.9422,38.5674 73.1012,39.2734 71.9502,39.2734 C71.0682,39.2734 69.8322,38.8304 69.8322,37.7724 L69.8322,2.9854 C69.8322,1.7504 70.8912,1.1334 71.9502,1.1334 C72.9682,1.1334 73.9422,1.7044 73.9422,2.8104 L73.9422,23.7584 C75.9742,20.4894 77.9182,18.1914 81.9422,18.1914 C86.5382,18.1914 88.1262,21.4634 88.1262,23.4514 C88.1262,26.3694 85.7872,28.1804 83.1792,29.2864 C83.9732,31.2704 84.9922,35.4284 87.7742,35.4284 C88.5262,35.4284 89.4542,34.9394 90.1622,34.9394 C90.6882,34.9394 91.0452,35.2074 91.0452,36.2234 C91.0452,38.5224 88.6162,39.0084 86.8052,39.0084"/>
    <mask id="logo_header_128x44-b" fill="#fff">
      <use xlink:href="#logo_header_128x44-a"/>
    </mask>
    <path fill="#F0648F" d="M8.7219,15.6427 C7.0009,24.6957 7.6839,28.2697 8.2249,32.5997 C8.4869,34.6777 9.0729,36.8437 10.4639,36.6767 C11.8709,36.5047 12.2599,34.7277 11.7069,28.9747 C11.2779,24.5147 9.6819,18.5777 8.7219,15.6427 Z M6.1719,11.2787 C3.1879,5.9517 0.1199,4.7327 0.0339,4.0387 C-0.2061,2.1357 0.8669,1.1867 1.9799,1.0557 C4.6739,0.7367 6.5639,2.9937 8.5379,5.9227 C10.7019,2.7947 13.5749,0.5777 17.5579,0.1047 C25.1729,-0.7993 32.1619,4.2297 33.1029,11.7337 C34.0959,19.6437 27.8759,26.4747 20.0849,27.4037 C18.3859,27.6047 16.3349,27.3787 16.0979,25.4747 C15.9679,24.4347 16.5019,23.4917 17.6179,23.3627 C17.8509,23.3307 18.5159,23.4277 19.8049,23.2757 C24.2579,22.7447 29.4759,18.5437 28.7279,12.4877 C28.1149,7.5227 23.1819,3.7847 18.1449,4.3817 C14.6879,4.7947 12.4639,7.3897 10.8139,10.3407 C13.4179,16.4167 15.0449,23.4087 15.6729,28.4327 C16.2599,33.1097 16.1369,40.5927 11.1429,40.8917 C6.9639,41.1427 4.8269,37.6447 4.0399,31.3507 C4.0399,31.3507 2.7389,21.0697 6.0639,11.5167 L6.1719,11.2787 Z" mask="url(#logo_header_128x44-b)"/>
    <path fill="#B5B7B9" d="M122.7008,13.3472 C122.7008,14.9102 121.4348,16.1742 119.8758,16.1742 C118.3128,16.1742 117.0488,14.9102 117.0488,13.3472 C117.0488,11.7872 118.3128,10.5232 119.8758,10.5232 C121.4348,10.5232 122.7008,11.7872 122.7008,13.3472 M123.5378,39.2782 C119.9148,39.2782 117.7918,36.1852 117.7918,32.7362 L117.7918,20.3192 C117.7918,19.0802 118.8978,18.4632 119.9598,18.4632 C120.9738,18.4632 121.9478,19.0362 121.9478,20.1402 L121.9478,31.7632 C121.9478,34.0172 122.5218,35.9192 124.6858,35.9192 C125.3488,35.9192 125.8818,35.5672 126.4108,35.5672 C127.1168,35.5672 127.9998,35.7852 127.9998,36.8032 C127.9998,38.6152 124.9948,39.2782 123.5378,39.2782"/>
    <path fill="#F0648F" d="M104.0516,31.6371 C103.0626,31.6371 102.1276,31.4081 101.2906,31.0131 L101.2986,31.0201 C100.7796,30.7661 100.1966,30.6241 99.5806,30.6241 C98.5646,30.6241 97.6386,31.0131 96.9456,31.6501 L96.9456,31.6441 C97.7226,30.9301 98.2106,29.9061 98.2106,28.7671 C98.2106,28.2741 98.1206,27.8031 97.9556,27.3681 L97.9756,27.3931 C97.7196,26.6951 97.5716,25.9441 97.5716,25.1581 C97.5716,21.5801 100.4736,18.6791 104.0516,18.6791 C107.6316,18.6791 110.5306,21.5801 110.5306,25.1581 C110.5306,28.7361 107.6316,31.6371 104.0516,31.6371 M103.8776,14.8101 C98.0666,14.8101 93.3566,19.5211 93.3566,25.3311 C93.3566,27.4511 93.9876,29.4171 95.0636,31.0671 C93.8466,30.9341 92.6126,30.8971 91.3746,30.9711 L91.2846,30.9801 C90.7896,31.0201 90.2956,31.2171 89.8896,31.5651 C88.8626,32.4461 88.7416,33.9881 89.6216,35.0171 C90.1706,35.6591 90.9806,35.9441 91.7586,35.8551 L92.1376,35.8061 C92.3406,35.7781 92.5476,35.7451 92.7516,35.7121 L92.7396,35.7151 C92.6246,36.0441 92.5196,36.3781 92.4236,36.7131 L92.3686,37.0151 C92.2796,37.6821 92.4636,38.3851 92.9366,38.9381 C93.8176,39.9661 95.3666,40.0861 96.3916,39.2061 C96.8086,38.8521 97.0846,38.3871 97.1966,37.8931 L97.2096,37.8411 C97.4876,36.5531 97.6516,35.2381 97.6936,33.9081 C97.6956,33.8831 97.6956,33.8571 97.6976,33.8331 C99.4316,35.0981 101.5656,35.8541 103.8776,35.8541 C109.6886,35.8541 114.4006,31.1441 114.4006,25.3311 C114.4006,19.5211 109.6886,14.8101 103.8776,14.8101"/>
    <path fill="#F0648F" d="M106.7319,22.2423 C106.1439,22.2473 105.6279,22.5483 105.3229,23.0043 L105.1809,23.2263 C105.1049,23.3503 105.0289,23.4723 104.9549,23.5983 L104.9579,23.5903 C104.8339,23.3823 104.7029,23.1773 104.5689,22.9733 L104.4349,22.8073 C104.1189,22.4583 103.6609,22.2423 103.1539,22.2473 C102.2089,22.2523 101.4509,23.0233 101.4579,23.9663 C101.4609,24.3473 101.5839,24.7023 101.7959,24.9863 L101.8189,25.0143 C102.7129,26.1773 103.7809,27.2163 104.9959,28.0863 L105.0969,28.0153 C106.2229,27.1633 107.2379,26.1493 108.1009,24.9933 L108.1349,24.9423 C108.3369,24.6593 108.4529,24.3083 108.4489,23.9353 C108.4439,22.9933 107.6749,22.2363 106.7319,22.2423"/>
    <polygon fill="#B20F39" points="104.365 14.8 91.014 6.533 94.147 21.92"/>
    <path fill="#086A64" d="M89.4949,6.4333 C89.7599,7.0033 90.4359,7.2503 91.0059,6.9853 C91.5749,6.7203 91.8219,6.0443 91.5579,5.4743 C91.2929,4.9053 90.6169,4.6583 90.0469,4.9223 C89.4769,5.1873 89.2299,5.8633 89.4949,6.4333"/>
  </g>
</svg>
